<mxfile host="65bd71144e">
    <diagram id="-Hh_SXQ7MOqm0KM2JhSV" name="第 1 页">
        <mxGraphModel dx="482" dy="830" grid="1" gridSize="10" guides="1" tooltips="1" connect="1" arrows="1" fold="1" page="1" pageScale="1" pageWidth="827" pageHeight="1169" background="#ffffff" math="0" shadow="0">
            <root>
                <mxCell id="0"/>
                <mxCell id="1" parent="0"/>
                <mxCell id="72" style="edgeStyle=none;html=1;entryX=0.5;entryY=0;entryDx=0;entryDy=0;strokeColor=#7b8f96;" parent="1" source="4" target="7" edge="1">
                    <mxGeometry relative="1" as="geometry"/>
                </mxCell>
                <mxCell id="4" value="&lt;p class=&quot;p1&quot; style=&quot;margin: 0px ; font-stretch: normal ; line-height: normal ; font-family: &amp;#34;pingfang sc&amp;#34;&quot;&gt;&lt;font color=&quot;#ffffff&quot;&gt;输入网址&lt;/font&gt;&lt;/p&gt;" style="rounded=1;whiteSpace=wrap;html=1;fillColor=#23A465;fontColor=#ffffff;strokeColor=none;" parent="1" vertex="1">
                    <mxGeometry x="440" y="160" width="200" height="40" as="geometry"/>
                </mxCell>
                <mxCell id="11" style="edgeStyle=none;html=1;exitX=0.5;exitY=1;exitDx=0;exitDy=0;entryX=0.5;entryY=0;entryDx=0;entryDy=0;fontColor=#FFFFFF;strokeColor=#7b8f96;" parent="1" source="7" target="10" edge="1">
                    <mxGeometry relative="1" as="geometry"/>
                </mxCell>
                <mxCell id="7" value="&lt;p class=&quot;p1&quot; style=&quot;margin: 0px ; font-stretch: normal ; line-height: normal ; font-family: &amp;quot;pingfang sc&amp;quot;&quot;&gt;&lt;font color=&quot;#ffffff&quot;&gt;dns 解析真实 ip 地址&lt;/font&gt;&lt;/p&gt;" style="rounded=1;whiteSpace=wrap;html=1;labelBackgroundColor=none;fillColor=#23a465;fontColor=#ffffff;strokeColor=none;" parent="1" vertex="1">
                    <mxGeometry x="440" y="240" width="200" height="40" as="geometry"/>
                </mxCell>
                <mxCell id="12" style="edgeStyle=none;html=1;fontColor=#FFFFFF;entryX=0.5;entryY=0;entryDx=0;entryDy=0;strokeColor=#7b8f96;" parent="1" source="10" target="13" edge="1">
                    <mxGeometry relative="1" as="geometry">
                        <mxPoint x="100" y="390" as="targetPoint"/>
                    </mxGeometry>
                </mxCell>
                <mxCell id="10" value="&lt;p class=&quot;p1&quot; style=&quot;margin: 0px ; font-stretch: normal ; line-height: normal ; font-family: &amp;#34;pingfang sc&amp;#34;&quot;&gt;&lt;font color=&quot;#ffffff&quot;&gt;通过握手机制建立连接&lt;/font&gt;&lt;/p&gt;" style="rounded=1;whiteSpace=wrap;html=1;fillColor=#23a465;fontColor=#ffffff;strokeColor=none;" parent="1" vertex="1">
                    <mxGeometry x="440" y="320" width="200" height="40" as="geometry"/>
                </mxCell>
                <mxCell id="14" style="edgeStyle=none;html=1;fontColor=#FFFFFF;entryX=0.5;entryY=0;entryDx=0;entryDy=0;strokeColor=#7b8f96;" parent="1" source="13" target="20" edge="1">
                    <mxGeometry relative="1" as="geometry">
                        <mxPoint x="100" y="550" as="targetPoint"/>
                        <Array as="points"/>
                    </mxGeometry>
                </mxCell>
                <mxCell id="13" value="&lt;p class=&quot;p1&quot; style=&quot;margin: 0px ; font-stretch: normal ; line-height: normal ; font-family: &amp;#34;pingfang sc&amp;#34;&quot;&gt;&lt;font color=&quot;#ffffff&quot;&gt;网站发起请求，服务器返回 html&amp;nbsp;&lt;/font&gt;&lt;/p&gt;" style="rounded=1;whiteSpace=wrap;html=1;fillColor=#23a465;fontColor=#ffffff;strokeColor=none;" parent="1" vertex="1">
                    <mxGeometry x="440" y="440" width="200" height="40" as="geometry"/>
                </mxCell>
                <mxCell id="15" value="" style="endArrow=block;dashed=1;endFill=0;endSize=12;html=1;fontColor=#FFFFFF;entryX=1;entryY=0.5;entryDx=0;entryDy=0;strokeColor=#3056f8;" parent="1" target="17" edge="1">
                    <mxGeometry width="160" relative="1" as="geometry">
                        <mxPoint x="540" y="520" as="sourcePoint"/>
                        <mxPoint x="680" y="520" as="targetPoint"/>
                        <Array as="points"/>
                    </mxGeometry>
                </mxCell>
                <mxCell id="17" value="&lt;p class=&quot;p1&quot; style=&quot;margin: 0px ; font-stretch: normal ; line-height: normal ; font-family: &amp;#34;pingfang sc&amp;#34;&quot;&gt;&lt;font color=&quot;#3056f8&quot;&gt;基于慢启动（Slow Start），是传输控制协议（TCP）使用的一种阻塞控制机制。首先返回14kb；&lt;/font&gt;&lt;/p&gt;" style="rounded=1;whiteSpace=wrap;html=1;fillColor=none;fontColor=#ffffff;strokeColor=#3056f8;" parent="1" vertex="1">
                    <mxGeometry x="120" y="480" width="200" height="80" as="geometry"/>
                </mxCell>
                <mxCell id="26" style="edgeStyle=none;html=1;exitX=0.5;exitY=1;exitDx=0;exitDy=0;entryX=0.5;entryY=0;entryDx=0;entryDy=0;fontColor=#FFFFFF;strokeColor=#7b8f96;" parent="1" source="20" target="25" edge="1">
                    <mxGeometry relative="1" as="geometry"/>
                </mxCell>
                <mxCell id="20" value="&lt;p class=&quot;p1&quot; style=&quot;margin: 0px ; font-stretch: normal ; line-height: normal ; font-family: &amp;#34;pingfang sc&amp;#34;&quot;&gt;&lt;font color=&quot;#ffffff&quot;&gt;收到html之后，开始渲染网页,&lt;/font&gt;&lt;/p&gt;&lt;p class=&quot;p1&quot; style=&quot;margin: 0px ; font-stretch: normal ; line-height: normal ; font-family: &amp;#34;pingfang sc&amp;#34;&quot;&gt;&lt;font color=&quot;#ffffff&quot;&gt;&lt;span style=&quot;font-family: &amp;#34;pingfang sc&amp;#34;&quot;&gt;五步统称关键渲染路径：&lt;/span&gt;&lt;/font&gt;&lt;/p&gt;" style="rounded=1;whiteSpace=wrap;html=1;fillColor=#23a465;fontColor=#ffffff;strokeColor=none;" parent="1" vertex="1">
                    <mxGeometry x="440" y="560" width="200" height="40" as="geometry"/>
                </mxCell>
                <mxCell id="50" style="edgeStyle=none;html=1;entryX=0.5;entryY=0;entryDx=0;entryDy=0;fontColor=#FFFFFF;strokeColor=#7b8f96;" parent="1" source="21" target="49" edge="1">
                    <mxGeometry relative="1" as="geometry"/>
                </mxCell>
                <mxCell id="21" value="&lt;p class=&quot;p1&quot; style=&quot;margin: 0px ; font-stretch: normal ; line-height: normal ; font-family: &amp;#34;pingfang sc&amp;#34;&quot;&gt;&lt;font color=&quot;#ffffff&quot;&gt;5.绘制&lt;span class=&quot;Apple-converted-space&quot;&gt;&amp;nbsp;&lt;/span&gt;&lt;/font&gt;&lt;/p&gt;" style="rounded=1;whiteSpace=wrap;html=1;fillColor=#23a465;fontColor=#ffffff;strokeColor=none;" parent="1" vertex="1">
                    <mxGeometry x="440" y="1280" width="200" height="40" as="geometry"/>
                </mxCell>
                <mxCell id="30" style="edgeStyle=none;html=1;entryX=0.5;entryY=0;entryDx=0;entryDy=0;fontColor=#FFFFFF;strokeColor=#7b8f96;" parent="1" source="22" target="21" edge="1">
                    <mxGeometry relative="1" as="geometry"/>
                </mxCell>
                <mxCell id="84" style="edgeStyle=none;html=1;entryX=1;entryY=0.5;entryDx=0;entryDy=0;fontColor=#3056F8;strokeColor=#3056F8;" parent="1" source="22" target="83" edge="1">
                    <mxGeometry relative="1" as="geometry"/>
                </mxCell>
                <mxCell id="22" value="&lt;p class=&quot;p1&quot; style=&quot;margin: 0px ; font-stretch: normal ; line-height: normal ; font-family: &amp;#34;pingfang sc&amp;#34;&quot;&gt;&lt;font color=&quot;#ffffff&quot;&gt;4.布局&lt;/font&gt;&lt;/p&gt;" style="rounded=1;whiteSpace=wrap;html=1;fillColor=#23a465;fontColor=#ffffff;strokeColor=none;" parent="1" vertex="1">
                    <mxGeometry x="440" y="1085" width="200" height="40" as="geometry"/>
                </mxCell>
                <mxCell id="29" style="edgeStyle=none;html=1;exitX=0.5;exitY=1;exitDx=0;exitDy=0;entryX=0.5;entryY=0;entryDx=0;entryDy=0;fontColor=#FFFFFF;strokeColor=#7b8f96;" parent="1" source="23" target="22" edge="1">
                    <mxGeometry relative="1" as="geometry"/>
                </mxCell>
                <mxCell id="86" style="edgeStyle=none;html=1;entryX=1;entryY=0.5;entryDx=0;entryDy=0;fontColor=#3056F8;strokeColor=#3056F8;" parent="1" source="23" target="74" edge="1">
                    <mxGeometry relative="1" as="geometry"/>
                </mxCell>
                <mxCell id="23" value="&lt;p class=&quot;p1&quot; style=&quot;margin: 0px ; font-stretch: normal ; line-height: normal ; font-family: &amp;#34;pingfang sc&amp;#34;&quot;&gt;&lt;font color=&quot;#ffffff&quot;&gt;3.合并dom和cssom&lt;/font&gt;&lt;/p&gt;" style="rounded=1;whiteSpace=wrap;html=1;fillColor=#23a465;fontColor=#ffffff;strokeColor=none;" parent="1" vertex="1">
                    <mxGeometry x="440" y="880" width="200" height="40" as="geometry"/>
                </mxCell>
                <mxCell id="28" style="edgeStyle=none;html=1;exitX=0.5;exitY=1;exitDx=0;exitDy=0;entryX=0.5;entryY=0;entryDx=0;entryDy=0;fontColor=#FFFFFF;strokeColor=#7b8f96;" parent="1" source="24" target="23" edge="1">
                    <mxGeometry relative="1" as="geometry"/>
                </mxCell>
                <mxCell id="24" value="&lt;p class=&quot;p1&quot; style=&quot;margin: 0px ; font-stretch: normal ; line-height: normal ; font-family: &amp;#34;pingfang sc&amp;#34;&quot;&gt;&lt;font color=&quot;#ffffff&quot;&gt;2. 构建cssom树&lt;/font&gt;&lt;/p&gt;" style="rounded=1;whiteSpace=wrap;html=1;fillColor=#23a465;fontColor=#ffffff;strokeColor=none;" parent="1" vertex="1">
                    <mxGeometry x="440" y="780" width="200" height="40" as="geometry"/>
                </mxCell>
                <mxCell id="67" style="edgeStyle=none;html=1;entryX=0.5;entryY=0;entryDx=0;entryDy=0;strokeColor=#7b8f96;" parent="1" source="25" target="24" edge="1">
                    <mxGeometry relative="1" as="geometry"/>
                </mxCell>
                <mxCell id="25" value="&lt;p class=&quot;p1&quot; style=&quot;margin: 0px ; font-stretch: normal ; line-height: normal ; font-family: &amp;#34;pingfang sc&amp;#34;&quot;&gt;&lt;font color=&quot;#ffffff&quot;&gt;1. 解析html构建dom树&lt;/font&gt;&lt;/p&gt;" style="rounded=1;whiteSpace=wrap;html=1;fillColor=#23a465;fontColor=#ffffff;strokeColor=none;" parent="1" vertex="1">
                    <mxGeometry x="440" y="680" width="200" height="40" as="geometry"/>
                </mxCell>
                <mxCell id="31" value="" style="endArrow=block;dashed=1;endFill=0;endSize=12;html=1;fontColor=#FFFFFF;entryX=1;entryY=0.5;entryDx=0;entryDy=0;strokeColor=#3056f8;" parent="1" target="32" edge="1">
                    <mxGeometry width="160" relative="1" as="geometry">
                        <mxPoint x="540" y="400" as="sourcePoint"/>
                        <mxPoint x="680" y="400" as="targetPoint"/>
                        <Array as="points"/>
                    </mxGeometry>
                </mxCell>
                <mxCell id="32" value="&lt;p class=&quot;p1&quot; style=&quot;margin: 0px ; font-stretch: normal ; line-height: normal ; font-family: &amp;#34;pingfang sc&amp;#34;&quot;&gt;&lt;font color=&quot;#3056f8&quot;&gt;https 多一次 TLS 握手&lt;/font&gt;&lt;br&gt;&lt;/p&gt;" style="rounded=1;whiteSpace=wrap;html=1;fillColor=none;fontColor=#ffffff;strokeColor=#3056f8;" parent="1" vertex="1">
                    <mxGeometry x="120" y="380" width="200" height="40" as="geometry"/>
                </mxCell>
                <mxCell id="37" value="&lt;p class=&quot;p1&quot; style=&quot;margin: 0px ; font-stretch: normal ; line-height: normal ; font-family: &amp;#34;pingfang sc&amp;#34;&quot;&gt;&amp;nbsp; &amp;nbsp;主线程: 浏览器解析html 是顺序执行;&lt;span style=&quot;font-family: &amp;#34;pingfang sc&amp;#34;&quot;&gt;遇到 script 标签会加载javascript 文件，并执行其 js 代码（此时主线程暂停解析html）。js代码执行完毕之后继续解析html；&lt;/span&gt;&lt;/p&gt;" style="rounded=1;whiteSpace=wrap;html=1;fillColor=#15aeca;fontColor=#ffffff;strokeColor=none;arcSize=13;" parent="1" vertex="1">
                    <mxGeometry x="720" y="720" width="400" height="80" as="geometry"/>
                </mxCell>
                <mxCell id="40" value="&lt;p class=&quot;p1&quot;&gt;&lt;br&gt;&lt;/p&gt;" style="text;whiteSpace=wrap;html=1;fontColor=#FFFFFF;" parent="1" vertex="1">
                    <mxGeometry x="460" y="705" width="160" height="50" as="geometry"/>
                </mxCell>
                <mxCell id="41" value="&lt;p class=&quot;p1&quot; style=&quot;margin: 0px ; font-stretch: normal ; line-height: normal ; font-family: &amp;#34;pingfang sc&amp;#34;&quot;&gt;&lt;span style=&quot;font-family: &amp;#34;helvetica&amp;#34; ; text-align: left&quot;&gt;&amp;nbsp; &amp;nbsp; 预扫描线程（&lt;/span&gt;preload&lt;span style=&quot;font-family: &amp;#34;helvetica&amp;#34; ; text-align: left&quot;&gt;&amp;nbsp;scanner)&lt;/span&gt;&lt;span style=&quot;font-family: &amp;#34;pingfang sc&amp;#34;&quot;&gt;扫描 html 代码，提前将图像，css、字体下载&lt;/span&gt;；&lt;/p&gt;" style="rounded=1;whiteSpace=wrap;html=1;fillColor=#15AECA;fontColor=#ffffff;strokeColor=none;" parent="1" vertex="1">
                    <mxGeometry x="720" y="640" width="400" height="60" as="geometry"/>
                </mxCell>
                <mxCell id="52" style="edgeStyle=none;html=1;entryX=0.5;entryY=0;entryDx=0;entryDy=0;fontColor=#FFFFFF;strokeColor=#7b8f96;" parent="1" source="49" target="51" edge="1">
                    <mxGeometry relative="1" as="geometry"/>
                </mxCell>
                <mxCell id="49" value="&lt;p class=&quot;p1&quot; style=&quot;margin: 0px ; font-stretch: normal ; line-height: normal ; font-family: &amp;#34;pingfang sc&amp;#34;&quot;&gt;&lt;font color=&quot;#ffffff&quot;&gt;加载 defer 或 async 修饰的&lt;/font&gt;&lt;span style=&quot;color: rgb(255 , 255 , 255)&quot;&gt;js文件&lt;/span&gt;&lt;br&gt;&lt;/p&gt;" style="rounded=1;whiteSpace=wrap;html=1;fillColor=#23a465;fontColor=#ffffff;strokeColor=none;" parent="1" vertex="1">
                    <mxGeometry x="440" y="1380" width="200" height="40" as="geometry"/>
                </mxCell>
                <mxCell id="51" value="&lt;p class=&quot;p1&quot; style=&quot;margin: 0px ; font-stretch: normal ; line-height: normal ; font-family: &amp;#34;pingfang sc&amp;#34;&quot;&gt;&lt;font color=&quot;#ffffff&quot;&gt;整个网页加载完成&lt;/font&gt;&lt;/p&gt;" style="rounded=1;whiteSpace=wrap;html=1;fillColor=#23a465;fontColor=#ffffff;strokeColor=none;" parent="1" vertex="1">
                    <mxGeometry x="440" y="1480" width="200" height="40" as="geometry"/>
                </mxCell>
                <mxCell id="61" value="&lt;p class=&quot;p1&quot; style=&quot;margin: 0px ; font-stretch: normal ; line-height: normal ; font-family: &amp;#34;pingfang sc&amp;#34;&quot;&gt;&lt;font color=&quot;#3056f8&quot;&gt;也可能有组合发生，例如 &amp;lt;video /&amp;gt; 和设置了 opactiy, will-change transform 的节点，浏览器需要把图层组合起来；回流会触发重新组合擦操作&lt;/font&gt;&lt;/p&gt;" style="rounded=1;whiteSpace=wrap;html=1;fillColor=none;fontColor=#ffffff;strokeColor=#3056F8;arcSize=8;" parent="1" vertex="1">
                    <mxGeometry x="120" y="1265" width="240" height="85" as="geometry"/>
                </mxCell>
                <mxCell id="63" value="&lt;p class=&quot;p1&quot; style=&quot;margin: 0px ; font-stretch: normal ; line-height: normal ; font-family: &amp;#34;pingfang sc&amp;#34;&quot;&gt;&lt;font color=&quot;#3056f8&quot;&gt;display: none; 的元素不会在布局树上(不过 visibility: hidden; 的元素却在布局树上)。&lt;/font&gt;&lt;/p&gt;" style="rounded=1;whiteSpace=wrap;html=1;fillColor=none;fontColor=#ffffff;strokeColor=#3056f8;" parent="1" vertex="1">
                    <mxGeometry x="120" y="1180" width="240" height="50" as="geometry"/>
                </mxCell>
                <mxCell id="74" value="&lt;p class=&quot;p1&quot; style=&quot;margin: 0px ; font-stretch: normal ; line-height: normal ; font-family: &amp;#34;pingfang sc&amp;#34;&quot;&gt;&lt;font color=&quot;#3056f8&quot;&gt;合并css样式到dom每个节点，生成渲染树 render tree&lt;/font&gt;&lt;br&gt;&lt;/p&gt;" style="rounded=1;whiteSpace=wrap;html=1;fillColor=none;fontColor=#ffffff;strokeColor=#3056f8;" parent="1" vertex="1">
                    <mxGeometry x="120" y="872.5" width="240" height="55" as="geometry"/>
                </mxCell>
                <mxCell id="80" value="&lt;p class=&quot;p1&quot; style=&quot;margin: 0px ; font-stretch: normal ; line-height: normal ; font-family: &amp;#34;pingfang sc&amp;#34;&quot;&gt;&lt;font color=&quot;#3056f8&quot;&gt;浏览器根据样式计算每个节点的宽高位置&lt;/font&gt;&lt;br&gt;&lt;/p&gt;" style="rounded=1;whiteSpace=wrap;html=1;fillColor=none;fontColor=#ffffff;strokeColor=#3056f8;" parent="1" vertex="1">
                    <mxGeometry x="120" y="975" width="240" height="55" as="geometry"/>
                </mxCell>
                <mxCell id="81" value="" style="edgeStyle=elbowEdgeStyle;elbow=horizontal;endArrow=classic;html=1;fontColor=#3056F8;strokeColor=#3056F8;entryX=1;entryY=0.5;entryDx=0;entryDy=0;" parent="1" target="80" edge="1">
                    <mxGeometry width="50" height="50" relative="1" as="geometry">
                        <mxPoint x="440" y="1100" as="sourcePoint"/>
                        <mxPoint x="360" y="1020" as="targetPoint"/>
                    </mxGeometry>
                </mxCell>
                <mxCell id="82" value="" style="edgeStyle=elbowEdgeStyle;elbow=horizontal;endArrow=classic;html=1;fontColor=#3056F8;strokeColor=#3056F8;entryX=1;entryY=0.5;entryDx=0;entryDy=0;" parent="1" target="63" edge="1">
                    <mxGeometry width="50" height="50" relative="1" as="geometry">
                        <mxPoint x="440" y="1110" as="sourcePoint"/>
                        <mxPoint x="370" y="1210" as="targetPoint"/>
                        <Array as="points">
                            <mxPoint x="400" y="1160"/>
                        </Array>
                    </mxGeometry>
                </mxCell>
                <mxCell id="83" value="&lt;p class=&quot;p1&quot; style=&quot;margin: 0px ; font-stretch: normal ; line-height: normal ; font-family: &amp;#34;pingfang sc&amp;#34;&quot;&gt;&lt;font color=&quot;#3056f8&quot;&gt;对于图片这样没有设置宽高的，浏览器会先忽略大小，在图片加载完成之后，会根据宽高和位置再次计算节点的位置（此过程叫做回流 reflow）&lt;/font&gt;&lt;br&gt;&lt;/p&gt;" style="rounded=1;whiteSpace=wrap;html=1;fillColor=none;fontColor=#ffffff;strokeColor=#3056f8;arcSize=8;" parent="1" vertex="1">
                    <mxGeometry x="120" y="1059.06" width="240" height="90.94" as="geometry"/>
                </mxCell>
                <mxCell id="85" value="" style="endArrow=block;dashed=1;endFill=0;endSize=12;html=1;fontColor=#FFFFFF;entryX=1;entryY=0.5;entryDx=0;entryDy=0;strokeColor=#3056f8;" parent="1" edge="1">
                    <mxGeometry width="160" relative="1" as="geometry">
                        <mxPoint x="440" y="1299.5" as="sourcePoint"/>
                        <mxPoint x="360" y="1299.5049999999999" as="targetPoint"/>
                        <Array as="points"/>
                    </mxGeometry>
                </mxCell>
                <mxCell id="95" value="&lt;p class=&quot;p1&quot; style=&quot;margin: 0px ; font-stretch: normal ; line-height: normal ; font-family: &amp;#34;pingfang sc&amp;#34; ; font-size: 12px&quot;&gt;&lt;font style=&quot;font-size: 12px&quot;&gt;&amp;nbsp; &amp;nbsp; &lt;/font&gt;&lt;font style=&quot;font-size: 12px&quot;&gt;主线程(main thread)：运行客户端的大部分代码。&lt;/font&gt;&lt;/p&gt;&lt;p class=&quot;p1&quot; style=&quot;margin: 0px ; font-stretch: normal ; line-height: normal ; font-family: &amp;#34;pingfang sc&amp;#34; ; font-size: 12px&quot;&gt;&lt;font style=&quot;font-size: 12px&quot;&gt;&lt;br style=&quot;font-size: 12px&quot;&gt;&lt;/font&gt;&lt;/p&gt;&lt;p class=&quot;p1&quot; style=&quot;margin: 0px ; font-stretch: normal ; line-height: normal ; font-family: &amp;#34;pingfang sc&amp;#34; ; font-size: 12px&quot;&gt;&lt;font style=&quot;font-size: 12px&quot;&gt;&amp;nbsp; &amp;nbsp; 工作线程(worker thread)：如果网页应用中有 web worker 或者 service worker 的话，这些 JS 代码会在工作线程中运行。&lt;/font&gt;&lt;/p&gt;&lt;p class=&quot;p1&quot; style=&quot;margin: 0px ; font-stretch: normal ; line-height: normal ; font-family: &amp;#34;pingfang sc&amp;#34; ; font-size: 12px&quot;&gt;&lt;font style=&quot;font-size: 12px&quot;&gt;&lt;br style=&quot;font-size: 12px&quot;&gt;&lt;/font&gt;&lt;/p&gt;&lt;p class=&quot;p1&quot; style=&quot;margin: 0px ; font-stretch: normal ; line-height: normal ; font-family: &amp;#34;pingfang sc&amp;#34; ; font-size: 12px&quot;&gt;&lt;font style=&quot;font-size: 12px&quot;&gt;&amp;nbsp; &amp;nbsp; 栅格化线程(raster thread)：栅格化图层，也就是把网页图层转换成屏幕上的像素。&lt;/font&gt;&lt;/p&gt;&lt;p class=&quot;p1&quot; style=&quot;margin: 0px ; font-stretch: normal ; line-height: normal ; font-family: &amp;#34;pingfang sc&amp;#34; ; font-size: 12px&quot;&gt;&lt;span style=&quot;font-size: 12px&quot;&gt;&lt;br style=&quot;font-size: 12px&quot;&gt;&lt;/span&gt;&lt;/p&gt;&lt;p class=&quot;p1&quot; style=&quot;margin: 0px ; font-stretch: normal ; line-height: normal ; font-family: &amp;#34;pingfang sc&amp;#34; ; font-size: 12px&quot;&gt;&lt;span style=&quot;font-size: 12px&quot;&gt;&amp;nbsp; &amp;nbsp; 合成器线程(compositor thread)：把已经完成栅格化的图层合成页面。&lt;/span&gt;&lt;br style=&quot;font-size: 12px&quot;&gt;&lt;/p&gt;" style="rounded=1;whiteSpace=wrap;html=1;fillColor=#15AECA;fontColor=#ffffff;strokeColor=none;align=left;fontSize=12;arcSize=5;" parent="1" vertex="1">
                    <mxGeometry x="720" y="440" width="400" height="170" as="geometry"/>
                </mxCell>
                <mxCell id="99" style="edgeStyle=none;html=1;entryX=0;entryY=0.5;entryDx=0;entryDy=0;fontColor=#3056F8;strokeColor=#7B8F96;" parent="1" target="95" edge="1">
                    <mxGeometry relative="1" as="geometry">
                        <mxPoint x="640" y="584" as="sourcePoint"/>
                        <mxPoint x="760" y="584" as="targetPoint"/>
                    </mxGeometry>
                </mxCell>
                <mxCell id="103" value="" style="edgeStyle=elbowEdgeStyle;elbow=horizontal;endArrow=classic;html=1;entryX=0;entryY=0.5;entryDx=0;entryDy=0;strokeColor=#7B8F96;" parent="1" target="41" edge="1">
                    <mxGeometry width="50" height="50" relative="1" as="geometry">
                        <mxPoint x="640" y="700" as="sourcePoint"/>
                        <mxPoint x="720" y="650" as="targetPoint"/>
                    </mxGeometry>
                </mxCell>
                <mxCell id="104" value="" style="edgeStyle=elbowEdgeStyle;elbow=horizontal;endArrow=classic;html=1;exitX=1;exitY=0.5;exitDx=0;exitDy=0;strokeColor=#7B8F96;" parent="1" source="25" edge="1">
                    <mxGeometry width="50" height="50" relative="1" as="geometry">
                        <mxPoint x="650" y="710" as="sourcePoint"/>
                        <mxPoint x="720" y="751" as="targetPoint"/>
                    </mxGeometry>
                </mxCell>
                <mxCell id="106" value="浏览器工作流程图 / SoaringHeart" style="shape=ext;double=1;rounded=1;whiteSpace=wrap;html=1;fontColor=#FFFFFF;strokeColor=none;fillColor=#FE8205;" parent="1" vertex="1">
                    <mxGeometry x="120" y="120" width="200" height="40" as="geometry"/>
                </mxCell>
            </root>
        </mxGraphModel>
    </diagram>
</mxfile>